<?xml version="1.0" encoding="UTF-8" standalone="no"?>
<svg
   xmlns:dc="http://purl.org/dc/elements/1.1/"
   xmlns:cc="http://creativecommons.org/ns#"
   xmlns:rdf="http://www.w3.org/1999/02/22-rdf-syntax-ns#"
   xmlns:svg="http://www.w3.org/2000/svg"
   xmlns="http://www.w3.org/2000/svg"
   viewBox="0 0 847.49597 266.35068"
   height="266.35068"
   width="847.49597"
   xml:space="preserve"
   id="svg2"
   version="1.1"><metadata
     id="metadata8"><rdf:RDF><cc:Work
         rdf:about=""><dc:format>image/svg+xml</dc:format><dc:type
           rdf:resource="http://purl.org/dc/dcmitype/StillImage" /></cc:Work></rdf:RDF></metadata><defs
     id="defs6"><clipPath
       id="clipPath22"
       clipPathUnits="userSpaceOnUse"><path
         id="path20"
         d="M 0,199.763 H 635.622 V 0 H 0 Z" /></clipPath></defs><g
     transform="matrix(1.3333333,0,0,-1.3333333,0,266.35067)"
     id="g10"><g
       transform="translate(290.645,42.3945)"
       id="g12"><path
         id="path14"
         style="fill:#ffffff;fill-opacity:1;fill-rule:nonzero;stroke:none"
         d="m 0,0 v 71.506 l 12.462,1.387 V 1.583 Z" /></g><g
       id="g16"><g
         clip-path="url(#clipPath22)"
         id="g18"><g
           transform="translate(319.2271,42.417)"
           id="g24"><path
             id="path26"
             style="fill:#ffffff;fill-opacity:1;fill-rule:nonzero;stroke:none"
             d="m 0,0 v 51.702 l 10.979,1.386 v -7.91 c 0.461,0.717 0.823,1.27 1.087,1.659 0.264,0.392 0.594,0.816 0.992,1.273 3.492,3.714 8.075,5.573 13.745,5.573 2.77,0 5.323,-0.512 7.666,-1.534 2.339,-1.021 4.204,-2.453 5.587,-4.297 1.054,-1.521 1.845,-3.332 2.374,-5.44 0.529,-2.109 0.793,-4.68 0.793,-7.712 V 1.584 L 32.146,0 v 32.621 c 0,1.185 -0.02,2.339 -0.051,3.459 -0.035,1.121 -0.386,2.275 -1.05,3.462 -1.332,2.9 -3.992,4.35 -7.986,4.35 -3.461,0 -6.339,-1.205 -8.634,-3.61 -2.298,-2.404 -3.446,-5.388 -3.446,-8.944 V 28.569 1.683 Z" /></g><g
           transform="translate(375.1079,46.7461)"
           id="g28"><path
             id="path30"
             style="fill:#ffffff;fill-opacity:1;fill-rule:nonzero;stroke:none"
             d="M 0,0 4.156,8.901 C 8.243,6.196 12.033,4.847 15.53,4.847 c 2.966,0 5.34,0.656 7.122,1.977 1.78,1.317 2.669,3.066 2.669,5.241 0,2.639 -2.145,4.682 -6.428,6.131 l -4.451,1.485 -3.167,0.991 c -1.977,0.592 -3.36,1.088 -4.153,1.481 -0.79,0.397 -1.647,1.023 -2.572,1.879 -2.506,2.176 -3.757,5.373 -3.757,9.595 0,4.68 1.746,8.508 5.241,11.474 3.495,2.966 8.078,4.451 13.749,4.451 2.834,0 5.454,-0.331 7.862,-0.991 2.407,-0.66 5.258,-1.813 8.555,-3.46 l -3.757,-8.604 c -0.859,0.526 -1.584,0.938 -2.175,1.235 -0.595,0.295 -1.058,0.508 -1.386,0.643 -0.988,0.395 -2.275,0.755 -3.856,1.088 -1.586,0.328 -2.87,0.496 -3.858,0.496 -2.639,0 -4.783,-0.595 -6.431,-1.782 -1.647,-1.187 -2.47,-2.738 -2.47,-4.649 0,-1.716 0.559,-2.933 1.68,-3.66 0.397,-0.331 1.285,-0.758 2.671,-1.286 0.79,-0.331 1.614,-0.658 2.471,-0.986 l 4.155,-1.485 5.834,-2.079 c 2.572,-1.121 4.55,-2.768 5.938,-4.944 1.382,-2.176 2.074,-4.78 2.074,-7.814 0,-4.615 -1.846,-8.473 -5.536,-11.572 -3.697,-3.1 -8.408,-4.646 -14.146,-4.646 -3.957,0 -8.044,0.824 -12.263,2.47 C 4.352,-2.144 3.612,-1.83 2.918,-1.533 2.227,-1.238 1.253,-0.728 0,0" /></g><g
           transform="translate(425.4497,42.3945)"
           id="g32"><path
             id="path34"
             style="fill:#ffffff;fill-opacity:1;fill-rule:nonzero;stroke:none"
             d="m 0,0 v 51.722 l 11.375,1.49 V 1.583 Z M -1.642,67.912 5.74,75.96 13.116,67.913 5.737,59.862 Z" /></g><g
           transform="translate(472.5288,87)"
           id="g36"><path
             id="path38"
             style="fill:#ffffff;fill-opacity:1;fill-rule:nonzero;stroke:none"
             d="m 0,0 c -3.365,0 -6.085,-1.037 -8.159,-3.116 -2.079,-2.077 -3.116,-4.764 -3.116,-8.061 0,-3.23 1.07,-5.95 3.212,-8.159 2.143,-2.208 4.83,-3.311 8.063,-3.311 3.229,0 5.948,1.103 8.159,3.311 2.206,2.209 3.315,4.929 3.315,8.159 0,3.231 -1.088,5.9 -3.264,8.012 C 6.032,-1.056 3.294,0 0,0 m -24.63,-55.386 6.924,8.012 c 4.616,-5.078 10.091,-7.617 16.42,-7.617 4.021,0 7.252,1.054 9.691,3.164 2.438,2.109 3.66,4.881 3.66,8.309 0,3.561 -1.334,6.413 -4.005,8.553 -2.671,2.146 -6.214,3.218 -10.632,3.218 -1.65,0 -3.462,-0.168 -5.44,-0.496 -1.977,-0.332 -4.255,-0.925 -6.824,-1.781 l 3.164,6.132 c -7.254,2.967 -10.879,8.407 -10.879,16.322 0,5.866 2.111,10.746 6.329,14.635 4.22,3.889 9.593,5.836 16.12,5.836 2.374,0 5.244,-0.463 8.607,-1.382 l 4.748,1.184 5.538,1.286 c 0.791,0.132 1.681,0.346 2.672,0.643 0.986,0.298 1.779,0.544 2.374,0.742 L 22.551,3.66 h -2.476 c -1.184,0 -2.636,-0.099 -4.351,-0.298 0.528,-0.528 0.955,-0.973 1.286,-1.334 0.33,-0.363 0.661,-0.742 0.991,-1.138 3.029,-3.625 4.55,-7.814 4.55,-12.562 0,-7.255 -3.264,-12.297 -9.794,-15.132 3.495,-1.583 6.199,-3.84 8.111,-6.773 1.911,-2.936 2.867,-6.38 2.867,-10.337 0,-6.065 -2.323,-11.029 -6.972,-14.885 -4.649,-3.856 -10.632,-5.788 -17.952,-5.788 -4.617,0 -8.49,0.631 -11.622,1.881 -3.131,1.254 -7.071,3.693 -11.819,7.32" /></g><g
           transform="translate(509.6187,42.3945)"
           id="g40"><path
             id="path42"
             style="fill:#ffffff;fill-opacity:1;fill-rule:nonzero;stroke:none"
             d="m 0,0 v 72.396 l 10.976,1.386 V 45.2 c 3.563,5.668 8.936,8.505 16.125,8.505 4.35,0 7.975,-1.124 10.878,-3.363 2.9,-2.241 4.613,-5.31 5.142,-9.198 0.132,-0.86 0.232,-2.095 0.297,-3.709 0.066,-1.617 0.1,-3.348 0.1,-5.193 V 1.583 L 32.341,0 v 31.947 c 0,2.11 -0.066,3.624 -0.198,4.55 -0.132,0.92 -0.429,1.876 -0.89,2.867 -1.321,3.03 -4.024,4.55 -8.11,4.55 -3.297,0 -6.083,-1.172 -8.358,-3.513 -2.274,-2.34 -3.413,-5.16 -3.413,-8.454 V 29.273 1.779 Z" /></g><g
           transform="translate(563.2241,85.8125)"
           id="g44"><path
             id="path46"
             style="fill:#ffffff;fill-opacity:1;fill-rule:nonzero;stroke:none"
             d="m 0,0 1.879,8.706 h 4.45 v 9.806 L 17.604,23.96 V 8.706 H 30.758 L 29.175,0 H 17.604 v -23.737 c 0,-6.594 2.801,-9.891 8.409,-9.891 1.118,0 2.669,0.199 4.646,0.593 l -1.187,-9.888 c -0.989,-0.198 -1.945,-0.33 -2.868,-0.396 -0.924,-0.067 -1.914,-0.099 -2.965,-0.099 -3.101,0 -5.575,0.313 -7.419,0.938 -1.849,0.625 -3.628,1.763 -5.341,3.414 -1.716,1.646 -2.902,3.56 -3.562,5.736 -0.658,2.176 -0.988,5.404 -0.988,9.691 L 6.329,0 Z" /></g><g
           transform="translate(598.5317,46.7461)"
           id="g48"><path
             id="path50"
             style="fill:#ffffff;fill-opacity:1;fill-rule:nonzero;stroke:none"
             d="m 0,0 4.156,8.901 c 4.087,-2.705 7.877,-4.054 11.372,-4.054 2.969,0 5.343,0.656 7.122,1.977 1.78,1.317 2.668,3.066 2.668,5.241 0,2.639 -2.142,4.682 -6.424,6.131 l -4.454,1.485 -3.165,0.991 C 9.298,21.264 7.913,21.76 7.12,22.153 6.332,22.55 5.473,23.176 4.55,24.032 c -2.506,2.176 -3.759,5.373 -3.759,9.595 0,4.68 1.748,8.508 5.241,11.474 3.497,2.966 8.077,4.451 13.751,4.451 2.831,0 5.454,-0.331 7.862,-0.991 2.407,-0.66 5.258,-1.813 8.555,-3.46 l -3.759,-8.604 c -0.857,0.526 -1.582,0.938 -2.175,1.235 -0.596,0.295 -1.056,0.508 -1.383,0.643 -0.992,0.395 -2.278,0.755 -3.86,1.088 -1.583,0.328 -2.866,0.496 -3.857,0.496 -2.639,0 -4.781,-0.595 -6.429,-1.782 -1.649,-1.187 -2.472,-2.738 -2.472,-4.649 0,-1.716 0.558,-2.933 1.682,-3.66 0.397,-0.331 1.286,-0.758 2.669,-1.286 0.793,-0.331 1.616,-0.658 2.473,-0.986 l 4.156,-1.485 5.833,-2.079 c 2.572,-1.121 4.55,-2.768 5.936,-4.944 1.382,-2.176 2.076,-4.78 2.076,-7.814 0,-4.615 -1.848,-8.473 -5.539,-11.572 -3.693,-3.1 -8.408,-4.646 -14.142,-4.646 -3.958,0 -8.048,0.824 -12.266,2.47 C 4.352,-2.144 3.612,-1.83 2.918,-1.533 2.225,-1.238 1.254,-0.728 0,0" /></g><g
           transform="translate(342.2485,194.0093)"
           id="g52"><path
             id="path54"
             style="fill:#47b4d7;fill-opacity:1;fill-rule:nonzero;stroke:none"
             d="m 0,0 1.878,-13.55 c -2.044,1.318 -3.892,2.24 -5.538,2.769 -2.572,0.857 -5.44,1.286 -8.608,1.286 -7.579,0 -13.878,-2.408 -18.888,-7.221 -5.011,-4.813 -7.518,-10.879 -7.518,-18.198 0,-7.253 2.474,-13.32 7.419,-18.199 4.944,-4.88 11.144,-7.319 18.594,-7.319 2.374,0 4.73,0.362 7.073,1.088 2.339,0.726 4.927,1.88 7.763,3.462 L 0.294,-69.234 c -5.536,-1.78 -10.121,-2.67 -13.745,-2.67 -10.946,0 -20.079,3.527 -27.399,10.583 -7.318,7.055 -10.977,15.857 -10.977,26.407 0,10.352 3.674,19.139 11.027,26.359 7.352,7.22 16.335,10.83 26.952,10.83 3.363,0 7.846,-0.692 13.451,-2.078 z" /></g><g
           transform="translate(364.4019,122.6992)"
           id="g56"><path
             id="path58"
             style="fill:#47b4d7;fill-opacity:1;fill-rule:nonzero;stroke:none"
             d="M 0,0 V 72.2 H 34.914 L 37.583,61.222 H 12.463 V 40.649 h 18.89 V 30.265 H 12.463 V 1.389 Z" /></g><g
           transform="translate(451.4878,185.0088)"
           id="g60"><path
             id="path62"
             style="fill:#47b4d7;fill-opacity:1;fill-rule:nonzero;stroke:none"
             d="m 0,0 c -6.975,0 -12.882,-2.522 -17.721,-7.566 -4.835,-5.045 -7.255,-11.162 -7.255,-18.347 0,-7.189 2.42,-13.304 7.255,-18.348 4.839,-5.044 10.746,-7.565 17.721,-7.565 6.909,0 12.798,2.505 17.668,7.516 4.87,5.011 7.306,11.143 7.306,18.397 0,7.121 -2.436,13.218 -7.306,18.297 C 12.798,-2.539 6.909,0 0,0 m -37.236,-25.913 c 0,10.616 3.543,19.434 10.63,26.457 7.085,7.022 15.971,10.533 26.655,10.533 10.749,0 19.665,-3.511 26.755,-10.533 7.086,-7.023 10.632,-15.841 10.632,-26.457 0,-10.551 -3.562,-19.353 -10.681,-26.407 -7.122,-7.057 -15.992,-10.583 -26.608,-10.583 -10.746,0 -19.668,3.509 -26.753,10.533 -7.087,7.021 -10.63,15.84 -10.63,26.457" /></g><g
           transform="translate(35.6841,195.2041)"
           id="g64"><path
             id="path66"
             style="fill:#47b4d7;fill-opacity:1;fill-rule:nonzero;stroke:none"
             d="m 0,0 c 3.412,0 6.179,-2.767 6.179,-6.178 0,-3.412 -2.767,-6.179 -6.179,-6.179 -1.487,0 -2.833,0.546 -3.899,1.422 l -0.97,0.996 c -0.808,1.044 -1.309,2.338 -1.309,3.761 C -6.178,-2.767 -3.413,0 0,0 m 82.095,-91.748 c 3.413,0 6.179,-2.767 6.179,-6.178 0,-3.411 -2.766,-6.178 -6.179,-6.178 -3.412,0 -6.178,2.767 -6.178,6.178 0,3.411 2.766,6.178 6.178,6.178 m -51.21,-8.78 h 40.828 c 1.168,-4.667 5.354,-8.134 10.382,-8.134 5.93,0 10.737,4.807 10.737,10.736 0,5.931 -4.807,10.737 -10.737,10.737 -5.028,0 -9.214,-3.468 -10.382,-8.133 H 33.102 l -19.197,19.955 h -37.514 l -6.87,7.221 v 29.637 l 24.222,23.637 c 1.766,-1.272 3.915,-2.042 6.257,-2.042 5.93,0 10.736,4.806 10.736,10.736 0,5.93 -4.806,10.737 -10.736,10.737 -5.93,0 -10.736,-4.807 -10.736,-10.737 0,-1.693 0.426,-3.272 1.124,-4.696 l -26.072,-25.441 v -33.911 l 9.84,-10.347 h 37.532 z" /></g><g
           transform="translate(187.4033,103.7881)"
           id="g68"><path
             id="path70"
             style="fill:#47b4d7;fill-opacity:1;fill-rule:nonzero;stroke:none"
             d="m 0,0 c -3.412,0 -6.178,2.767 -6.178,6.179 0,3.411 2.766,6.177 6.178,6.177 3.413,0 6.179,-2.766 6.179,-6.177 C 6.179,2.767 3.413,0 0,0 m -20.825,-46.202 c 0,-3.411 -2.766,-6.179 -6.178,-6.179 -3.413,0 -6.178,2.768 -6.178,6.179 0,3.411 2.765,6.177 6.178,6.177 3.412,0 6.178,-2.766 6.178,-6.177 m 0,-26.841 c 0,-3.411 -2.766,-6.179 -6.178,-6.179 -3.413,0 -6.178,2.768 -6.178,6.179 0,3.411 2.765,6.177 6.178,6.177 3.412,0 6.178,-2.766 6.178,-6.177 m -4.874,129.976 c 0,3.411 2.766,6.178 6.178,6.178 3.413,0 6.179,-2.767 6.179,-6.178 0,-3.412 -2.766,-6.179 -6.179,-6.179 -3.412,0 -6.178,2.767 -6.178,6.179 M 0,16.915 c -2.412,0 -4.615,-0.823 -6.406,-2.166 L -16.918,25.26 v 21.291 c 4.666,1.168 8.134,5.354 8.134,10.382 0,5.93 -4.807,10.736 -10.737,10.736 -5.93,0 -10.736,-4.806 -10.736,-10.736 0,-5.028 3.468,-9.214 8.133,-10.382 V 23.104 L -9.71,10.692 c -0.643,-1.376 -1.026,-2.895 -1.026,-4.513 0,-5.028 3.468,-9.214 8.133,-10.382 V -6.797 L -29.606,-28.92 v -6.901 c -4.666,-1.167 -8.134,-5.353 -8.134,-10.381 0,-5.027 3.468,-9.214 8.134,-10.38 v -6.08 c -4.666,-1.167 -8.134,-5.354 -8.134,-10.381 0,-5.93 4.806,-10.736 10.737,-10.736 5.929,0 10.736,4.806 10.736,10.736 0,5.027 -3.468,9.214 -8.134,10.381 v 6.08 c 4.666,1.166 8.134,5.353 8.134,10.38 0,5.028 -3.468,9.214 -8.134,10.381 v 4.435 L 2.603,-9.262 v 5.059 c 4.665,1.168 8.134,5.354 8.134,10.382 0,5.93 -4.807,10.736 -10.737,10.736" /></g><g
           transform="translate(75.0508,130.5762)"
           id="g72"><path
             id="path74"
             style="fill:#47b4d7;fill-opacity:1;fill-rule:nonzero;stroke:none"
             d="m 0,0 c -3.412,0 -6.178,2.767 -6.178,6.179 0,3.411 2.766,6.177 6.178,6.177 3.413,0 6.179,-2.766 6.179,-6.177 C 6.179,2.767 3.413,0 0,0 m -53.357,0 c -3.412,0 -6.178,2.767 -6.178,6.179 0,3.411 2.766,6.177 6.178,6.177 3.413,0 6.179,-2.766 6.179,-6.177 C -47.178,2.767 -49.944,0 -53.357,0 M 0,16.915 c -5.027,0 -9.214,-3.468 -10.382,-8.134 h -32.593 c -1.168,4.666 -5.354,8.134 -10.382,8.134 -5.93,0 -10.736,-4.807 -10.736,-10.736 0,-5.93 4.806,-10.737 10.736,-10.737 5.028,0 9.214,3.468 10.382,8.134 h 32.593 C -9.214,-1.09 -5.027,-4.558 0,-4.558 c 5.93,0 10.737,4.807 10.737,10.737 0,5.929 -4.807,10.736 -10.737,10.736" /></g><g
           transform="translate(35.6841,153.5664)"
           id="g76"><path
             id="path78"
             style="fill:#47b4d7;fill-opacity:1;fill-rule:nonzero;stroke:none"
             d="m 0,0 c -3.413,0 -6.178,2.767 -6.178,6.179 0,3.411 2.765,6.177 6.178,6.177 3.412,0 6.179,-2.766 6.179,-6.177 C 6.179,2.767 3.412,0 0,0 m 42.729,41.638 c 3.413,0 6.18,-2.767 6.18,-6.178 0,-1.567 -0.603,-2.981 -1.563,-4.069 L 46.843,30.88 c -1.094,-0.984 -2.526,-1.599 -4.114,-1.599 -3.412,0 -6.177,2.766 -6.177,6.179 0,3.411 2.765,6.178 6.177,6.178 m 51.836,-71.68 c 0,-3.412 -2.767,-6.179 -6.179,-6.179 -3.412,0 -6.178,2.767 -6.178,6.179 0,3.411 2.766,6.179 6.178,6.179 3.412,0 6.179,-2.768 6.179,-6.179 M 0,16.915 c -5.93,0 -10.736,-4.807 -10.736,-10.736 0,-5.93 4.806,-10.737 10.736,-10.737 5.93,0 10.736,4.807 10.736,10.737 0,1.98 -0.573,3.81 -1.507,5.402 l 0.438,-0.378 10.83,12.553 v 9.101 h 11.851 c 1.168,-4.665 5.354,-8.133 10.381,-8.133 1.89,0 3.639,0.529 5.182,1.387 l 37.872,-37.29 v -8.48 c -4.665,-1.168 -8.134,-5.355 -8.134,-10.383 0,-5.93 4.807,-10.736 10.737,-10.736 5.93,0 10.737,4.806 10.737,10.736 0,5.028 -3.469,9.215 -8.134,10.383 V -8.998 L 51.736,29.649 c 1.084,1.677 1.73,3.665 1.73,5.811 0,5.93 -4.806,10.736 -10.737,10.736 -5.027,0 -9.213,-3.468 -10.381,-8.133 H 15.291 V 25.69 L 6.081,15.017 C 4.352,16.21 2.261,16.915 0,16.915" /></g><g
           transform="translate(108.1284,195.2041)"
           id="g80"><path
             id="path82"
             style="fill:#47b4d7;fill-opacity:1;fill-rule:nonzero;stroke:none"
             d="m 0,0 c 3.412,0 6.179,-2.767 6.179,-6.178 0,-3.412 -2.767,-6.179 -6.179,-6.179 -3.413,0 -6.178,2.767 -6.178,6.179 C -6.178,-2.767 -3.413,0 0,0 m 52.271,-85.729 c 3.413,0 6.179,-2.766 6.179,-6.177 0,-3.413 -2.766,-6.18 -6.179,-6.18 -3.412,0 -6.177,2.767 -6.177,6.18 0,3.411 2.765,6.177 6.177,6.177 M 0,-16.914 c 2.409,0 4.609,0.822 6.4,2.162 l 29.928,-32.46 v -31.802 l 6.874,-7.194 c -1.041,-1.654 -1.667,-3.599 -1.667,-5.698 0,-5.931 4.806,-10.737 10.736,-10.737 5.93,0 10.737,4.806 10.737,10.737 0,5.929 -4.807,10.736 -10.737,10.736 -1.937,0 -3.727,-0.553 -5.297,-1.45 l -5.44,5.693 v 31.748 L 9.721,-10.674 c 0.635,1.371 1.015,2.885 1.015,4.496 0,5.93 -4.806,10.737 -10.736,10.737 -5.93,0 -10.737,-4.807 -10.737,-10.737 0,-5.93 4.807,-10.736 10.737,-10.736" /></g><g
           transform="translate(138.9268,195.2041)"
           id="g84"><path
             id="path86"
             style="fill:#47b4d7;fill-opacity:1;fill-rule:nonzero;stroke:none"
             d="m 0,0 c 3.413,0 6.179,-2.767 6.179,-6.178 0,-3.412 -2.766,-6.179 -6.179,-6.179 -3.412,0 -6.178,2.767 -6.178,6.179 C -6.178,-2.767 -3.412,0 0,0 m 54.656,-51.727 c 0,-3.412 -2.767,-6.178 -6.179,-6.178 -3.413,0 -6.178,2.766 -6.178,6.178 0,3.412 2.765,6.178 6.178,6.178 3.412,0 6.179,-2.766 6.179,-6.178 M 0,-16.914 c 5.028,0 9.214,3.468 10.382,8.133 h 13.185 l 22.307,-21.496 v -11.068 c -4.666,-1.168 -8.134,-5.353 -8.134,-10.382 0,-5.929 4.807,-10.736 10.737,-10.736 5.93,0 10.736,4.807 10.736,10.736 0,5.029 -3.468,9.214 -8.133,10.382 v 13.282 L 25.667,-3.575 H 10.382 C 9.214,1.09 5.028,4.559 0,4.559 c -5.93,0 -10.736,-4.807 -10.736,-10.737 0,-5.93 4.806,-10.736 10.736,-10.736" /></g><g
           transform="translate(104.4375,117.2344)"
           id="g88"><path
             id="path90"
             style="fill:#47b4d7;fill-opacity:1;fill-rule:nonzero;stroke:none"
             d="m 0,0 c 0,-3.413 -2.767,-6.18 -6.179,-6.18 -3.412,0 -6.178,2.767 -6.178,6.18 0,3.411 2.766,6.178 6.178,6.178 C -2.767,6.178 0,3.411 0,0 m -40.123,36.332 c -3.412,0 -6.178,2.767 -6.178,6.179 0,3.411 2.766,6.177 6.178,6.177 3.413,0 6.179,-2.766 6.179,-6.177 0,-3.412 -2.766,-6.179 -6.179,-6.179 M -16.916,0 c 0,-5.931 4.807,-10.736 10.737,-10.736 5.93,0 10.737,4.805 10.737,10.736 0,5.027 -3.469,9.214 -8.134,10.382 v 18.559 l -13.878,16.172 h -12.287 c -1.168,4.666 -5.354,8.134 -10.382,8.134 -5.93,0 -10.736,-4.807 -10.736,-10.736 0,-5.93 4.806,-10.737 10.736,-10.737 5.028,0 9.214,3.468 10.382,8.134 h 9.895 L -8.782,27.015 V 10.382 C -13.447,9.214 -16.916,5.027 -16.916,0" /></g><g
           transform="translate(140.3911,4.5576)"
           id="g92"><path
             id="path94"
             style="fill:#47b4d7;fill-opacity:1;fill-rule:nonzero;stroke:none"
             d="m 0,0 c -3.413,0 -6.178,2.768 -6.178,6.179 0,3.411 2.765,6.176 6.178,6.176 3.412,0 6.179,-2.765 6.179,-6.176 C 6.179,2.768 3.412,0 0,0 m -6.178,73.525 c 0,3.412 2.765,6.177 6.178,6.177 3.412,0 6.179,-2.765 6.179,-6.177 0,-3.411 -2.767,-6.178 -6.179,-6.178 -3.413,0 -6.178,2.767 -6.178,6.178 m -46.691,-6.178 c -3.412,0 -6.178,2.767 -6.178,6.178 0,3.412 2.766,6.177 6.178,6.177 3.412,0 6.179,-2.765 6.179,-6.177 0,-3.411 -2.767,-6.178 -6.179,-6.178 m -55.956,25.374 c 0,3.411 2.765,6.177 6.178,6.177 3.412,0 6.179,-2.766 6.179,-6.177 0,-3.411 -2.767,-6.179 -6.179,-6.179 -3.413,0 -6.178,2.768 -6.178,6.179 M 2.603,16.56 v 46.585 c 4.665,1.167 8.133,5.353 8.133,10.38 0,5.93 -4.806,10.737 -10.736,10.737 -5.028,0 -9.214,-3.467 -10.382,-8.134 h -32.105 c -1.168,4.667 -5.354,8.134 -10.382,8.134 -5.027,0 -9.214,-3.467 -10.382,-8.134 h -17.534 l -12.328,11.754 c 0.744,1.459 1.202,3.088 1.202,4.839 0,5.93 -4.806,10.736 -10.736,10.736 -5.93,0 -10.736,-4.806 -10.736,-10.736 0,-5.93 4.806,-10.737 10.736,-10.737 2.286,0 4.396,0.728 6.138,1.945 L -82.87,70.923 h 19.619 c 1.168,-4.667 5.355,-8.134 10.382,-8.134 5.028,0 9.214,3.467 10.382,8.134 h 32.105 c 0.958,-3.828 3.951,-6.822 7.779,-7.778 V 16.56 c -4.666,-1.167 -8.134,-5.354 -8.134,-10.381 0,-5.93 4.807,-10.737 10.737,-10.737 5.93,0 10.736,4.807 10.736,10.737 0,5.027 -3.468,9.214 -8.133,10.381" /></g></g></g></g></svg>