<?xml version="1.0" standalone="no"?>
<!DOCTYPE svg PUBLIC "-//W3C//DTD SVG 20010904//EN"
 "http://www.w3.org/TR/2001/REC-SVG-20010904/DTD/svg10.dtd">
<svg version="1.0" xmlns="http://www.w3.org/2000/svg"
 width="256.000000pt" height="256.000000pt" viewBox="0 0 256.000000 256.000000"
 preserveAspectRatio="xMidYMid meet">
<metadata>
Created by potrace 1.11, written by Peter Selinger 2001-2013
</metadata>
<g transform="translate(0.000000,256.000000) scale(0.100000,-0.100000)"
fill="#000000" stroke="none">
<path d="M394 2535 c-40 -31 -58 -75 -51 -124 5 -38 5 -39 -169 -212 l-174
-174 0 -214 0 -215 73 -73 73 -73 234 0 234 0 131 -130 132 -130 271 0 c265 0
271 0 277 -21 10 -30 64 -59 110 -59 112 0 171 124 100 208 -56 66 -135 67
-197 1 l-37 -39 -243 0 -243 0 -130 130 -130 130 -235 0 -236 0 -47 48 -47 48
0 174 0 175 163 162 c160 160 162 163 198 157 73 -12 149 52 149 125 0 106
-125 170 -206 106z m106 -80 c14 -17 5 -51 -16 -59 -22 -8 -54 11 -54 32 0 38
46 56 70 27z m1070 -1221 c0 -28 -25 -42 -49 -27 -23 15 -26 45 -6 59 25 18
55 0 55 -32z"/>
<path d="M959 2545 c-14 -8 -34 -26 -43 -40 -16 -24 -21 -25 -111 -25 -116 0
-125 -6 -125 -93 l0 -62 -77 -78 c-74 -73 -80 -76 -114 -71 -101 17 -181 -95
-134 -186 66 -128 259 -68 242 76 -4 42 -4 43 84 130 l89 89 0 52 0 53 63 0
c59 0 65 -2 85 -30 32 -43 77 -63 127 -57 l41 6 242 -242 242 -242 0 -61 c0
-55 -3 -63 -26 -79 -14 -9 -32 -32 -40 -50 -40 -96 21 -185 126 -185 33 0 47
7 80 40 34 34 40 46 40 82 0 47 -27 100 -59 118 -18 9 -21 20 -21 87 l0 77
-259 261 -260 260 1 46 c2 106 -102 173 -193 124z m89 -87 c30 -30 -4 -77 -41
-57 -20 11 -23 55 -4 62 21 9 32 8 45 -5z m-553 -384 c19 -20 16 -43 -7 -58
-38 -23 -78 35 -42 61 23 17 29 16 49 -3z m1146 -464 c21 -12 25 -40 7 -58
-18 -18 -46 -14 -58 7 -13 25 -13 27 6 45 18 19 20 19 45 6z"/>
<path d="M1339 2543 c-116 -71 -49 -258 86 -240 l41 6 202 -202 202 -202 0
-213 0 -213 48 -52 c45 -48 48 -55 44 -94 -7 -72 57 -143 128 -143 92 0 157
108 115 190 -26 51 -63 72 -122 69 -47 -2 -57 1 -83 26 l-30 29 0 215 0 215
-219 220 -220 221 6 41 c14 104 -109 183 -198 127z m101 -92 c20 -38 -13 -71
-51 -51 -21 12 -25 40 -7 58 18 18 46 14 58 -7z m678 -1103 c16 -16 15 -33 -3
-51 -19 -19 -52 -11 -60 15 -12 37 35 64 63 36z"/>
<path d="M1723 2540 c-37 -22 -63 -67 -63 -107 0 -64 67 -133 128 -133 38 0
88 26 111 59 22 31 23 31 114 31 l92 0 143 -143 142 -142 0 -71 c0 -66 -2 -73
-25 -88 -35 -23 -65 -75 -65 -112 0 -41 37 -95 80 -117 82 -42 180 23 180 118
0 46 -29 100 -59 110 -19 6 -21 14 -21 108 l0 101 -163 163 -163 163 -116 0
-116 0 -40 40 c-34 34 -46 40 -83 40 -26 0 -57 -8 -76 -20z m95 -82 c18 -18
14 -46 -7 -58 -38 -20 -71 13 -51 51 12 21 40 25 58 7z m642 -603 c18 -22 3
-55 -25 -55 -29 0 -47 27 -34 52 12 22 42 23 59 3z"/>
<path d="M792 2160 c-37 -23 -72 -75 -72 -108 0 -38 31 -93 64 -113 18 -11 50
-19 75 -19 37 0 49 6 83 40 38 37 44 40 97 40 l57 0 67 -68 67 -68 0 -123 c0
-120 -1 -124 -25 -143 -79 -62 -69 -180 19 -222 43 -20 69 -20 112 0 88 42 98
160 19 222 -25 20 -25 22 -25 157 l0 138 -97 98 -97 99 -77 0 c-75 0 -78 1
-100 31 -23 33 -73 59 -111 59 -13 0 -38 -9 -56 -20z m96 -112 c-4 -26 -30
-43 -52 -35 -21 8 -21 53 1 66 25 13 55 -5 51 -31z m422 -533 c20 -24 3 -55
-30 -55 -20 0 -31 6 -35 20 -8 25 10 50 35 50 10 0 23 -7 30 -15z"/>
<path d="M2115 2161 c-42 -25 -68 -67 -68 -112 0 -43 35 -105 63 -114 19 -6
20 -16 20 -148 l0 -142 90 -90 c80 -80 90 -93 84 -117 -10 -48 6 -91 49 -131
l41 -38 -166 -167 c-168 -169 -188 -194 -188 -232 0 -11 -16 -34 -35 -51 -60
-53 -60 -126 1 -187 29 -29 34 -41 34 -79 0 -36 -5 -49 -25 -65 -77 -60 -70
-169 14 -216 46 -26 72 -27 117 -6 45 21 74 70 74 124 0 36 -6 48 -40 82 -34
35 -40 47 -40 83 0 36 6 48 40 83 34 34 40 46 40 82 0 48 -30 106 -60 115 -11
4 -20 14 -20 23 0 9 77 93 170 187 146 147 170 176 170 202 0 22 11 41 40 71
34 34 40 46 40 83 0 86 -65 147 -145 136 -41 -6 -42 -5 -118 71 l-77 77 0 121
c0 118 0 121 24 132 54 24 78 105 49 162 -37 71 -117 99 -178 61z m95 -116 c0
-15 -7 -26 -20 -30 -41 -13 -70 43 -33 64 25 13 53 -5 53 -34z m241 -605 c21
-12 25 -40 7 -58 -18 -18 -46 -14 -58 7 -13 25 -13 27 6 45 18 19 20 19 45 6z
m-330 -696 c17 -21 0 -49 -31 -49 -31 0 -48 28 -31 49 8 9 21 16 31 16 10 0
23 -7 31 -16z m-1 -339 c19 -23 3 -57 -27 -53 -34 4 -51 31 -34 52 17 20 45
21 61 1z"/>
<path d="M233 1860 c-112 -68 -63 -240 69 -240 38 0 92 30 108 59 10 20 19 21
230 21 211 0 220 -1 230 -21 16 -29 70 -59 108 -59 132 0 181 172 69 240 -58
36 -147 16 -177 -39 -10 -20 -19 -21 -230 -21 -211 0 -220 1 -230 21 -30 55
-119 75 -177 39z m91 -86 c19 -18 19 -20 6 -45 -6 -10 -19 -19 -28 -19 -36 0
-55 43 -30 68 16 16 33 15 52 -4z m690 -6 c23 -38 -35 -78 -61 -42 -17 23 -16
29 3 49 20 19 43 16 58 -7z"/>
<path d="M465 1361 c-35 -15 -74 -62 -81 -97 -9 -50 3 -84 43 -122 33 -30 41
-33 90 -31 l54 3 90 -90 89 -89 138 -3 137 -4 31 -33 c54 -59 134 -59 190 1
l33 34 214 0 214 0 41 -40 42 -39 0 -298 0 -298 -35 -28 c-96 -76 -43 -227 80
-227 123 0 176 151 80 227 l-35 28 0 300 0 300 35 28 c50 40 63 94 36 150 -25
51 -65 77 -118 77 -44 0 -98 -30 -108 -59 -6 -20 -13 -21 -224 -21 l-219 0
-40 40 c-34 34 -46 40 -83 40 -48 0 -101 -27 -119 -59 -10 -19 -20 -21 -133
-21 l-123 0 -74 75 c-73 73 -74 75 -72 122 3 59 -21 103 -71 126 -38 18 -70
21 -102 8z m85 -119 c0 -42 -51 -57 -71 -20 -10 18 -8 24 11 40 26 21 60 9 60
-20z m628 -234 c18 -18 14 -46 -7 -58 -23 -12 -47 -5 -55 16 -15 38 34 70 62
42z m682 -3 c26 -31 -13 -82 -44 -56 -19 16 -21 57 -3 64 22 9 34 7 47 -8z
m10 -874 c0 -26 -25 -44 -50 -36 -25 8 -27 50 -3 64 23 12 53 -4 53 -28z"/>
</g>
</svg>
